<svg width="35" height="35" viewBox="0 0 35 35" fill="none" xmlns="http://www.w3.org/2000/svg">
<path d="M24.3359 10.3906C24.3359 10.541 24.2129 10.6641 24.0625 10.6641H22.1484C21.998 10.6641 21.875 10.541 21.875 10.3906V8.75H13.125V10.3906C13.125 10.541 13.002 10.6641 12.8516 10.6641H10.9375C10.7871 10.6641 10.6641 10.541 10.6641 10.3906V8.75H6.28906V13.3984H28.7109V8.75H24.3359V10.3906Z" fill="black" fill-opacity="0.15"/>
<path d="M30.0781 6.28906H24.3359V4.10156C24.3359 3.95117 24.2129 3.82812 24.0625 3.82812H22.1484C21.998 3.82812 21.875 3.95117 21.875 4.10156V6.28906H13.125V4.10156C13.125 3.95117 13.002 3.82812 12.8516 3.82812H10.9375C10.7871 3.82812 10.6641 3.95117 10.6641 4.10156V6.28906H4.92188C4.31689 6.28906 3.82812 6.77783 3.82812 7.38281V30.0781C3.82812 30.6831 4.31689 31.1719 4.92188 31.1719H30.0781C30.6831 31.1719 31.1719 30.6831 31.1719 30.0781V7.38281C31.1719 6.77783 30.6831 6.28906 30.0781 6.28906ZM28.7109 28.7109H6.28906V15.7227H28.7109V28.7109ZM28.7109 13.3984H6.28906V8.75H10.6641V10.3906C10.6641 10.541 10.7871 10.6641 10.9375 10.6641H12.8516C13.002 10.6641 13.125 10.541 13.125 10.3906V8.75H21.875V10.3906C21.875 10.541 21.998 10.6641 22.1484 10.6641H24.0625C24.2129 10.6641 24.3359 10.541 24.3359 10.3906V8.75H28.7109V13.3984Z" fill="black"/>
</svg>
