<svg width="31" height="30" viewBox="0 0 31 30" fill="none" xmlns="http://www.w3.org/2000/svg">
<g clip-path="url(#clip0_39_394)">
<path d="M13.8321 13.8074L10.1987 10.174L5.6123 14.7602L9.24564 18.3936L9.2433 18.3959L13.1666 22.3192L13.8319 22.9798L13.8342 22.9821L17.7575 19.0588L18.418 18.3936L30.2702 6.54176L25.6839 1.95557L13.8321 13.8074ZM16.4296 17.7307L15.769 18.3959L13.8321 20.3328L13.8297 20.3305L11.8951 18.3959L11.8975 18.3936L8.26414 14.7602L10.1987 12.8256L13.8321 16.459L25.6839 4.60717L27.6185 6.54176L16.4296 17.7307Z" fill="#58585F"/>
<path d="M27.0693 27.1875H3.63184V3.75H21.2229L23.0979 1.875H1.75684V29.0625H28.9443V10.4938L27.0693 12.3688V27.1875Z" fill="#58585F"/>
</g>
<defs>
<clipPath id="clip0_39_394">
<rect width="30" height="30" fill="white" transform="translate(0.819336)"/>
</clipPath>
</defs>
</svg>
