<svg width="31" height="30" viewBox="0 0 31 30" fill="none" xmlns="http://www.w3.org/2000/svg">
<g clip-path="url(#clip0_39_386)">
<path d="M30.8193 15C30.8193 15 25.1943 4.6875 15.8193 4.6875C6.44434 4.6875 0.819336 15 0.819336 15C0.819336 15 6.44434 25.3125 15.8193 25.3125C25.1943 25.3125 30.8193 15 30.8193 15ZM3.01871 15C3.9253 13.6221 4.96804 12.3388 6.13121 11.1694C8.54434 8.7525 11.8443 6.5625 15.8193 6.5625C19.7943 6.5625 23.0925 8.7525 25.5093 11.1694C26.6725 12.3388 27.7152 13.6221 28.6218 15C28.5131 15.1631 28.3931 15.3431 28.2562 15.54C27.6281 16.44 26.7 17.64 25.5093 18.8306C23.0925 21.2475 19.7925 23.4375 15.8193 23.4375C11.8443 23.4375 8.54621 21.2475 6.12934 18.8306C4.96617 17.6612 3.92344 16.3779 3.01684 15H3.01871Z" fill="#58585F"/>
<path d="M15.8193 10.3125C14.5761 10.3125 13.3838 10.8064 12.5048 11.6854C11.6257 12.5645 11.1318 13.7568 11.1318 15C11.1318 16.2432 11.6257 17.4355 12.5048 18.3146C13.3838 19.1936 14.5761 19.6875 15.8193 19.6875C17.0625 19.6875 18.2548 19.1936 19.1339 18.3146C20.013 17.4355 20.5068 16.2432 20.5068 15C20.5068 13.7568 20.013 12.5645 19.1339 11.6854C18.2548 10.8064 17.0625 10.3125 15.8193 10.3125ZM9.25684 15C9.25684 13.2595 9.94824 11.5903 11.1789 10.3596C12.4097 9.1289 14.0789 8.4375 15.8193 8.4375C17.5598 8.4375 19.229 9.1289 20.4597 10.3596C21.6904 11.5903 22.3818 13.2595 22.3818 15C22.3818 16.7405 21.6904 18.4097 20.4597 19.6404C19.229 20.8711 17.5598 21.5625 15.8193 21.5625C14.0789 21.5625 12.4097 20.8711 11.1789 19.6404C9.94824 18.4097 9.25684 16.7405 9.25684 15Z" fill="#58585F"/>
</g>
<defs>
<clipPath id="clip0_39_386">
<rect width="30" height="30" fill="white" transform="translate(0.819336)"/>
</clipPath>
</defs>
</svg>
