<svg width="35" height="35" viewBox="0 0 35 35" fill="none" xmlns="http://www.w3.org/2000/svg">
<path d="M9.59657 25.7622L23.6338 5.7094C23.714 5.58696 23.8181 5.48188 23.9397 5.40039C24.0613 5.3189 24.1981 5.26267 24.3419 5.23502C24.4857 5.20736 24.6335 5.20886 24.7767 5.23941C24.9199 5.26997 25.0555 5.32896 25.1755 5.41289C25.2954 5.49682 25.3973 5.60399 25.4751 5.72803C25.5529 5.85207 25.605 5.99046 25.6283 6.13501C25.6516 6.27955 25.6456 6.4273 25.6107 6.5695C25.5759 6.7117 25.5128 6.84546 25.4253 6.96284L10.7406 27.941C10.6567 28.0613 10.5493 28.1636 10.425 28.2416C10.3007 28.3196 10.1619 28.3718 10.017 28.3951C9.87204 28.4184 9.72392 28.4122 9.58141 28.3771C9.43891 28.3419 9.30495 28.2784 9.1875 28.1903L1.3125 22.2841C1.1976 22.1979 1.10079 22.0899 1.02761 21.9663C0.95443 21.8428 0.90631 21.706 0.885997 21.5638C0.844974 21.2766 0.919706 20.9849 1.09375 20.7528C1.2678 20.5208 1.52691 20.3674 1.81407 20.3263C2.10124 20.2853 2.39294 20.36 2.625 20.5341L9.59657 25.7622ZM25.1563 15.3125C24.8662 15.3125 24.588 15.1973 24.3829 14.9922C24.1777 14.7871 24.0625 14.5089 24.0625 14.2188C24.0625 13.9287 24.1777 13.6505 24.3829 13.4454C24.588 13.2403 24.8662 13.125 25.1563 13.125H31.7188C32.0088 13.125 32.287 13.2403 32.4922 13.4454C32.6973 13.6505 32.8125 13.9287 32.8125 14.2188C32.8125 14.5089 32.6973 14.7871 32.4922 14.9922C32.287 15.1973 32.0088 15.3125 31.7188 15.3125H25.1563ZM20.7813 21.875C20.4912 21.875 20.213 21.7598 20.0079 21.5547C19.8027 21.3496 19.6875 21.0714 19.6875 20.7813C19.6875 20.4912 19.8027 20.213 20.0079 20.0079C20.213 19.8028 20.4912 19.6875 20.7813 19.6875H31.7166C32.0066 19.6875 32.2848 19.8028 32.49 20.0079C32.6951 20.213 32.8103 20.4912 32.8103 20.7813C32.8103 21.0714 32.6951 21.3496 32.49 21.5547C32.2848 21.7598 32.0066 21.875 31.7166 21.875H20.7813ZM16.4063 28.4375C16.1162 28.4375 15.838 28.3223 15.6329 28.1172C15.4277 27.9121 15.3125 27.6339 15.3125 27.3438C15.3125 27.0537 15.4277 26.7755 15.6329 26.5704C15.838 26.3653 16.1162 26.25 16.4063 26.25H31.7166C32.0066 26.25 32.2848 26.3653 32.49 26.5704C32.6951 26.7755 32.8103 27.0537 32.8103 27.3438C32.8103 27.6339 32.6951 27.9121 32.49 28.1172C32.2848 28.3223 32.0066 28.4375 31.7166 28.4375H16.4063Z" fill="white"/>
</svg>
