<svg width="100" height="100" viewBox="0 0 100 100" fill="none" xmlns="http://www.w3.org/2000/svg">
<path d="M35 22.5C33.5 22.5 32.5 24 32.5 25V37.5H27.5V25C27.5 23.5 26.5 22.5 25 22.5C23.5 22.5 22.5 24 22.5 25V37.5H17.5V25C17.5 23.5 16.5 22.5 15 22.5C13.5 22.5 12.5 24 12.5 25V41.5C12.5 46 16 49.5 20 50V85C20 88 22 90 25 90C28 90 30 88 30 85V50C34 49.5 37.5 46 37.5 41.5V25C37.5 24 36.5 22.5 35 22.5ZM45 25V55H50V85C50 88 52 90 55 90C58 90 60 88 60 85V10C51.5 10 45 16.5 45 25ZM80 20C73 20 67.5 27.5 67.5 36.5C67 42.5 70 48 75 51.5V85C75 88 77 90 80 90C83 90 85 88 85 85V51.5C90 48 93 42.5 92.5 36.5C92.5 27.5 87 20 80 20Z" fill="black"/>
</svg>
