<svg width="100" height="107" viewBox="0 0 100 107" fill="none" xmlns="http://www.w3.org/2000/svg">
<path d="M50 16.3287C40.7174 16.3287 31.815 20.2207 25.2513 27.1486C18.6875 34.0766 15 43.4728 15 53.2704V58.5478H22.5C23.163 58.5478 23.7989 58.8258 24.2678 59.3207C24.7366 59.8155 25 60.4867 25 61.1865V92.8509C25 93.5507 24.7366 94.2218 24.2678 94.7167C23.7989 95.2115 23.163 95.4895 22.5 95.4895H20C17.3478 95.4895 14.8043 94.3775 12.9289 92.3981C11.0536 90.4187 10 87.7341 10 84.9348V53.2704C10 42.0732 14.2143 31.3346 21.7157 23.417C29.2172 15.4993 39.3913 11.0513 50 11.0513C60.6087 11.0513 70.7828 15.4993 78.2843 23.417C85.7857 31.3346 90 42.0732 90 53.2704V84.9348C90 87.7341 88.9464 90.4187 87.0711 92.3981C85.1957 94.3775 82.6522 95.4895 80 95.4895H77.5C76.837 95.4895 76.2011 95.2115 75.7322 94.7167C75.2634 94.2218 75 93.5507 75 92.8509V61.1865C75 60.4867 75.2634 59.8155 75.7322 59.3207C76.2011 58.8258 76.837 58.5478 77.5 58.5478H85V53.2704C85 43.4728 81.3125 34.0766 74.7487 27.1486C68.185 20.2207 59.2826 16.3287 50 16.3287ZM52.5 55.9091C52.5 55.2093 52.2366 54.5381 51.7678 54.0433C51.2989 53.5484 50.663 53.2704 50 53.2704C49.337 53.2704 48.7011 53.5484 48.2322 54.0433C47.7634 54.5381 47.5 55.2093 47.5 55.9091V92.8509C47.5 93.5507 47.7634 94.2218 48.2322 94.7167C48.7011 95.2115 49.337 95.4895 50 95.4895C50.663 95.4895 51.2989 95.2115 51.7678 94.7167C52.2366 94.2218 52.5 93.5507 52.5 92.8509V55.9091ZM37.5 63.8252C38.163 63.8252 38.7989 64.1032 39.2678 64.598C39.7366 65.0929 40 65.7641 40 66.4639V87.5735C40 88.2733 39.7366 88.9445 39.2678 89.4393C38.7989 89.9342 38.163 90.2122 37.5 90.2122C36.837 90.2122 36.2011 89.9342 35.7322 89.4393C35.2634 88.9445 35 88.2733 35 87.5735V66.4639C35 65.7641 35.2634 65.0929 35.7322 64.598C36.2011 64.1032 36.837 63.8252 37.5 63.8252ZM65 66.4639C65 65.7641 64.7366 65.0929 64.2678 64.598C63.7989 64.1032 63.163 63.8252 62.5 63.8252C61.837 63.8252 61.2011 64.1032 60.7322 64.598C60.2634 65.0929 60 65.7641 60 66.4639V87.5735C60 88.2733 60.2634 88.9445 60.7322 89.4393C61.2011 89.9342 61.837 90.2122 62.5 90.2122C63.163 90.2122 63.7989 89.9342 64.2678 89.4393C64.7366 88.9445 65 88.2733 65 87.5735V66.4639Z" fill="black"/>
</svg>
