<svg width="40" height="40" viewBox="0 0 40 40" fill="none" xmlns="http://www.w3.org/2000/svg">
<path d="M4.99999 21.6667H6.66666V33.3333C6.66666 35.1717 8.16166 36.6667 9.99999 36.6667H30C31.8383 36.6667 33.3333 35.1717 33.3333 33.3333V21.6667H35C35.3296 21.6666 35.6517 21.5688 35.9258 21.3857C36.1998 21.2025 36.4133 20.9423 36.5395 20.6378C36.6656 20.3333 36.6986 19.9982 36.6343 19.675C36.57 19.3517 36.4113 19.0548 36.1783 18.8217L21.1783 3.82168C21.0237 3.66677 20.84 3.54387 20.6378 3.46002C20.4356 3.37617 20.2189 3.33301 20 3.33301C19.7811 3.33301 19.5644 3.37617 19.3622 3.46002C19.16 3.54387 18.9763 3.66677 18.8217 3.82168L3.82166 18.8217C3.58864 19.0548 3.42996 19.3517 3.36569 19.675C3.30141 19.9982 3.33441 20.3333 3.46053 20.6378C3.58664 20.9423 3.80021 21.2025 4.07423 21.3857C4.34824 21.5688 4.67041 21.6666 4.99999 21.6667ZM20 7.35668L30 17.3567V25L30.0017 33.3333H9.99999V17.3567L20 7.35668Z" fill="#fff"/>
<path d="M20 30C26.1717 30 28.1683 24.1016 28.25 23.8516L25.0833 22.8166C25.07 22.855 23.7817 26.6666 20 26.6666C16.27 26.6666 14.9667 22.965 14.915 22.8066L11.75 23.8516C11.8317 24.1016 13.8283 30 20 30Z" fill="#fff"/>
</svg>
