<svg width="50" height="50" viewBox="0 0 50 50" fill="none" xmlns="http://www.w3.org/2000/svg">
<path d="M24.8633 23.9648C24.8291 23.9014 24.7949 23.8721 24.7559 23.8672C24.6143 24.0283 24.6484 25.4053 24.8877 26.377C25.083 25.7129 25.1172 24.3994 24.8633 23.9648ZM24.7852 29.8486C24.4092 30.8252 23.8672 32.1582 23.2178 33.335C23.4131 33.2568 23.6133 33.1738 23.8184 33.0908C24.6777 32.7393 25.6396 32.3438 26.6943 32.1045C25.9668 31.5283 25.3076 30.752 24.7852 29.8486Z" fill="black" fill-opacity="0.15"/>
<path d="M26.0742 17.1875V6.64062H11.3281V43.3594H38.6719V19.2383H28.125C27.5811 19.2383 27.0595 19.0222 26.6749 18.6376C26.2903 18.253 26.0742 17.7314 26.0742 17.1875ZM28.7598 31.2305C29.5459 31.1377 30.2539 31.0938 30.9229 31.1182C31.5479 31.1377 32.0752 31.2158 32.4854 31.3672C32.4951 31.3721 32.5 31.3721 32.5098 31.377C32.5293 31.3867 32.5488 31.3916 32.5684 31.4014C32.5928 31.4111 32.6221 31.4209 32.6465 31.4355C32.6514 31.4404 32.6611 31.4404 32.666 31.4453C32.8662 31.5332 33.0322 31.6406 33.1592 31.7676C33.6035 32.2119 33.7354 33.042 33.4619 33.7012C33.3057 34.0771 32.8906 34.7021 31.8359 34.7021C30.7715 34.7021 29.2041 34.2285 27.8272 33.4912C26.582 33.7012 25.2051 34.1699 23.877 34.6191C23.5938 34.7168 23.3008 34.8145 23.0176 34.9072C21.1621 38.0908 19.7705 38.7842 18.9111 38.7842C18.7061 38.7842 18.5303 38.7402 18.3838 38.6865C18.0469 38.5596 17.7588 38.2959 17.5781 37.9541C17.5342 37.8711 17.5 37.7881 17.4707 37.7002C17.3926 37.4658 17.3682 37.2314 17.4072 37.0361L17.4365 36.9043C17.4414 36.8945 17.4414 36.8848 17.4463 36.875C17.4561 36.8408 17.4658 36.8066 17.4805 36.7725C17.4805 36.7676 17.4854 36.7627 17.4854 36.7578C17.6855 36.1768 18.1494 35.6152 18.8379 35.0684C19.4385 34.5898 20.1611 34.1553 21.0791 33.6816C21.8555 32.3145 22.915 30.0147 23.5791 28.4375C23.0518 26.3965 22.7637 24.7949 23.0859 23.623C23.1299 23.4619 23.208 23.3105 23.3105 23.1787C23.3203 23.1689 23.3252 23.1592 23.335 23.1494C23.3398 23.1445 23.3398 23.1396 23.3447 23.1396C23.6523 22.7734 24.1699 22.5586 24.7168 22.5781C25.5273 22.6123 26.167 23.1396 26.3281 24.0479C26.4111 24.4385 26.4355 24.8535 26.4209 25.3027V25.3369C26.4209 25.3613 26.4209 25.3857 26.416 25.4102C26.3818 26.0596 26.2695 26.709 26.0596 27.5928C26.04 27.6709 26.0205 27.749 26.001 27.8467L25.9521 28.0469L25.9473 28.0615C25.9521 28.0713 25.9521 28.0762 25.957 28.0859L26.0449 28.3057C26.0498 28.3203 26.0596 28.3398 26.0645 28.3545C26.0986 28.4326 26.1328 28.5156 26.167 28.5889V28.5937C26.5918 29.5117 27.1289 30.2246 27.8223 30.7959C28.0322 30.9668 28.2568 31.123 28.501 31.2744C28.5889 31.25 28.6719 31.2402 28.7598 31.2305Z" fill="black" fill-opacity="0.15"/>
<path d="M19.1162 37.1582C19.3945 36.9434 19.9072 36.4502 20.5859 35.4639C20.083 35.9229 19.4434 36.5577 19.1162 37.1582ZM32.3438 33.1055L32.3535 33.0909H32.3633C32.3926 33.0713 32.3877 33.0567 32.3828 33.0469C32.3779 33.042 32.1631 32.5928 30.1807 32.6856C31.9043 33.3643 32.3047 33.1299 32.3438 33.1055Z" fill="black" fill-opacity="0.15"/>
<path d="M41.7285 14.0918L31.2207 3.58398C30.9277 3.29102 30.5322 3.125 30.1172 3.125H9.375C8.51074 3.125 7.8125 3.82324 7.8125 4.6875V45.3125C7.8125 46.1768 8.51074 46.875 9.375 46.875H40.625C41.4893 46.875 42.1875 46.1768 42.1875 45.3125V15.2002C42.1875 14.7852 42.0215 14.3848 41.7285 14.0918ZM29.3945 6.72852L38.584 15.918H29.3945V6.72852ZM38.6719 43.3594H11.3281V6.64062H26.0742V17.1875C26.0742 17.7314 26.2903 18.253 26.6749 18.6376C27.0595 19.0222 27.5811 19.2383 28.125 19.2383H38.6719V43.3594Z" fill="black"/>
<path d="M26.167 28.5791C26.128 28.4961 26.0938 28.418 26.0596 28.3399C26.0547 28.3252 26.045 28.3057 26.0401 28.291L25.9522 28.0713C25.9473 28.0615 25.9473 28.0567 25.9424 28.0469L25.9473 28.0322L25.9571 27.9785C26.1524 27.1826 26.377 26.2549 26.4161 25.3223V25.2881C26.4307 24.8682 26.4063 24.4483 26.3184 24.0381C26.1329 22.9981 25.3663 22.5928 24.712 22.5635C24.1602 22.5391 23.6475 22.7588 23.3399 23.1201C23.335 23.125 23.335 23.1299 23.3301 23.1299C23.3204 23.1397 23.3106 23.1494 23.3057 23.1592C23.2032 23.291 23.125 23.4424 23.0811 23.6035C22.7588 24.7754 23.0469 26.377 23.5743 28.418C22.9102 30 21.8506 32.2949 21.0743 33.6621V33.667C19.7217 34.3652 17.9444 35.4151 17.4805 36.7383C17.4805 36.7432 17.4756 36.7481 17.4756 36.7529C17.4659 36.7871 17.4512 36.8213 17.4414 36.8555C17.4366 36.8652 17.4366 36.875 17.4317 36.8848C17.4219 36.9287 17.4073 36.9727 17.4024 37.0166C17.3584 37.2119 17.3829 37.4463 17.4659 37.6807C17.4952 37.7686 17.5293 37.8516 17.5733 37.9346C17.7539 38.2764 18.042 38.5401 18.3789 38.667C18.5254 38.7207 18.7012 38.7647 18.9063 38.7647C19.7657 38.7647 21.1573 38.0713 23.0127 34.8877C23.2959 34.7949 23.5889 34.6973 23.8721 34.5996C25.2002 34.1504 26.5772 33.6817 27.8223 33.4717C29.1993 34.209 30.7666 34.6826 31.8311 34.6826C32.8858 34.6826 33.3008 34.0576 33.4571 33.6817C33.7305 33.0225 33.5987 32.1924 33.1543 31.7481C33.0274 31.6211 32.8614 31.5137 32.6612 31.4258C32.6563 31.4209 32.6465 31.4209 32.6416 31.416C32.6172 31.4063 32.5879 31.3965 32.5635 31.3819C32.544 31.3721 32.5245 31.3672 32.5049 31.3574C32.4952 31.3526 32.4903 31.3526 32.4805 31.3477C31.6895 31.0645 30.4444 31.0205 28.7549 31.211L28.4961 31.2402C28.252 31.0938 28.0274 30.9326 27.8174 30.7617C27.1241 30.21 26.5918 29.502 26.167 28.5791ZM19.1163 37.1582C19.4434 36.5576 20.083 35.9229 20.586 35.4639C19.9073 36.4502 19.3946 36.9434 19.1163 37.1582ZM24.7559 23.8672C24.795 23.8721 24.8291 23.9014 24.8633 23.9649C25.1172 24.3994 25.083 25.7129 24.8877 26.377C24.6485 25.4053 24.6143 24.0283 24.7559 23.8672ZM23.8184 33.0908C23.6133 33.1738 23.4131 33.2569 23.2178 33.335C23.8672 32.1582 24.4092 30.8252 24.7852 29.8486C25.3077 30.752 25.9668 31.5283 26.6944 32.1045C25.6397 32.3438 24.6778 32.7393 23.8184 33.0908ZM32.3829 33.0469C32.3877 33.0567 32.3926 33.0713 32.3633 33.0908H32.3536L32.3438 33.1055C32.3047 33.1299 31.9043 33.3643 30.1807 32.6856C32.1631 32.5928 32.378 33.042 32.3829 33.0469Z" fill="black"/>
</svg>
