<svg width="50" height="50" viewBox="0 0 50 50" fill="none" xmlns="http://www.w3.org/2000/svg">
<path d="M7.8125 7.8125V42.1875H42.1875V7.8125H7.8125ZM6.25 4.6875H43.75C44.1644 4.6875 44.5618 4.85212 44.8549 5.14515C45.1479 5.43817 45.3125 5.8356 45.3125 6.25V43.75C45.3125 44.1644 45.1479 44.5618 44.8549 44.8549C44.5618 45.1479 44.1644 45.3125 43.75 45.3125H6.25C5.8356 45.3125 5.43817 45.1479 5.14515 44.8549C4.85212 44.5618 4.6875 44.1644 4.6875 43.75V6.25C4.6875 5.8356 4.85212 5.43817 5.14515 5.14515C5.43817 4.85212 5.8356 4.6875 6.25 4.6875Z" fill="black"/>
<path d="M18.7499 14.0625C20.8332 14.0625 21.8749 15.1042 21.8749 17.1875C21.8749 19.2708 20.8332 20.3125 18.7499 20.3125C16.6666 20.3125 15.6249 19.2708 15.6249 17.1875C15.6249 15.1042 16.6666 14.0625 18.7499 14.0625ZM9.05303 42.8219L6.57178 40.9219L17.1249 27.15C17.4992 26.6612 17.966 26.2509 18.4988 25.9426C19.0317 25.6342 19.62 25.4338 20.2303 25.3529C20.8405 25.2719 21.4608 25.312 22.0555 25.4707C22.6503 25.6295 23.208 25.9038 23.6968 26.2781L23.7874 26.35L29.7874 31.1906C30.1102 31.4504 30.523 31.5714 30.935 31.5269C31.347 31.4823 31.7244 31.2759 31.9843 30.9531L42.5312 17.775L44.9687 19.725L34.4312 32.9L34.4187 32.9156C34.0322 33.3951 33.5551 33.7938 33.0145 34.0888C32.4739 34.3838 31.8805 34.5695 31.2681 34.635C30.6558 34.7006 30.0365 34.6449 29.4457 34.4711C28.8549 34.2972 28.3041 34.0087 27.8249 33.6219L21.8249 28.7844L21.7937 28.7594C21.4648 28.5084 21.0499 28.398 20.6398 28.4525C20.2298 28.507 19.858 28.7219 19.6062 29.05L9.05303 42.8219Z" fill="black"/>
</svg>
