<svg width="47" height="50" viewBox="0 0 47 50" fill="none" xmlns="http://www.w3.org/2000/svg">
<g clip-path="url(#clip0_38_18)">
<path d="M46.1538 26.9231C46.1538 30.0481 45.5429 33.0329 44.3209 35.8774C43.099 38.722 41.4563 41.1759 39.393 43.2392C37.3297 45.3025 34.8758 46.9451 32.0312 48.1671C29.1867 49.389 26.2019 50 23.0769 50C19.9519 50 16.9671 49.389 14.1226 48.1671C11.278 46.9451 8.82412 45.3025 6.76082 43.2392C4.69752 41.1759 3.05489 38.722 1.83293 35.8774C0.610978 33.0329 0 30.0481 0 26.9231C0 23.2772 0.80629 19.8417 2.41887 16.6166C4.03145 13.3914 6.30008 10.6871 9.22476 8.50361C10.0861 7.86258 11.0427 7.61218 12.0944 7.7524C13.146 7.89263 13.9824 8.39343 14.6034 9.25481C15.2444 10.0962 15.4898 11.0427 15.3395 12.0944C15.1893 13.146 14.6935 13.9924 13.8522 14.6334C11.889 16.1158 10.3716 17.9287 9.29988 20.0721C8.22817 22.2155 7.69231 24.4992 7.69231 26.9231C7.69231 29.0064 8.09796 30.9946 8.90926 32.8876C9.72055 34.7806 10.8173 36.4183 12.1995 37.8005C13.5817 39.1827 15.2194 40.2794 17.1124 41.0907C19.0054 41.902 20.9936 42.3077 23.0769 42.3077C25.1603 42.3077 27.1484 41.902 29.0415 41.0907C30.9345 40.2794 32.5721 39.1827 33.9543 37.8005C35.3365 36.4183 36.4333 34.7806 37.2446 32.8876C38.0559 30.9946 38.4615 29.0064 38.4615 26.9231C38.4615 24.4992 37.9257 22.2155 36.854 20.0721C35.7823 17.9287 34.2648 16.1158 32.3017 14.6334C31.4603 13.9924 30.9645 13.146 30.8143 12.0944C30.6641 11.0427 30.9095 10.0962 31.5505 9.25481C32.1715 8.39343 33.0128 7.89263 34.0745 7.7524C35.1362 7.61218 36.0877 7.86258 36.9291 8.50361C39.8538 10.6871 42.1224 13.3914 43.735 16.6166C45.3476 19.8417 46.1538 23.2772 46.1538 26.9231ZM26.9231 3.84615V23.0769C26.9231 24.1186 26.5425 25.02 25.7812 25.7812C25.02 26.5425 24.1186 26.9231 23.0769 26.9231C22.0353 26.9231 21.1338 26.5425 20.3726 25.7812C19.6114 25.02 19.2308 24.1186 19.2308 23.0769V3.84615C19.2308 2.80449 19.6114 1.90304 20.3726 1.14183C21.1338 0.380609 22.0353 0 23.0769 0C24.1186 0 25.02 0.380609 25.7812 1.14183C26.5425 1.90304 26.9231 2.80449 26.9231 3.84615Z" fill="#0063C9"/>
</g>
<defs>
<clipPath id="clip0_38_18">
<rect width="46.1538" height="50" fill="white"/>
</clipPath>
</defs>
</svg>
