<svg width="35" height="35" viewBox="0 0 35 35" fill="none" xmlns="http://www.w3.org/2000/svg">
<path d="M30.5327 10.0249L24.9751 4.46729C24.7188 4.21094 24.4043 4.02295 24.0625 3.92041V3.82812H4.92188C4.31689 3.82812 3.82812 4.31689 3.82812 4.92188V30.0781C3.82812 30.6831 4.31689 31.1719 4.92188 31.1719H30.0781C30.6831 31.1719 31.1719 30.6831 31.1719 30.0781V11.5698C31.1719 10.9888 30.9429 10.4351 30.5327 10.0249ZM13.125 6.28906H21.875V9.84375H13.125V6.28906ZM28.7109 28.7109H6.28906V6.28906H10.9375V10.9375C10.9375 11.5425 11.4263 12.0312 12.0312 12.0312H22.9688C23.5737 12.0312 24.0625 11.5425 24.0625 10.9375V7.03418L28.7109 11.6826V28.7109ZM17.5 15.1074C14.7827 15.1074 12.5781 17.312 12.5781 20.0293C12.5781 22.7466 14.7827 24.9512 17.5 24.9512C20.2173 24.9512 22.4219 22.7466 22.4219 20.0293C22.4219 17.312 20.2173 15.1074 17.5 15.1074ZM17.5 22.7637C15.9893 22.7637 14.7656 21.54 14.7656 20.0293C14.7656 18.5186 15.9893 17.2949 17.5 17.2949C19.0107 17.2949 20.2344 18.5186 20.2344 20.0293C20.2344 21.54 19.0107 22.7637 17.5 22.7637Z" fill="white"/>
</svg>
