<svg width="35" height="35" viewBox="0 0 35 35" fill="none" xmlns="http://www.w3.org/2000/svg">
<g clip-path="url(#clip0_39_319)">
<path d="M34.9212 1.5002C35.0008 1.30144 35.0203 1.08369 34.9772 0.873962C34.9342 0.664233 34.8306 0.471742 34.6792 0.320352C34.5278 0.168963 34.3353 0.0653336 34.1256 0.0223111C33.9159 -0.0207115 33.6981 -0.00123505 33.4994 0.0783258L1.67779 12.8074C1.39755 12.9196 1.15369 13.1069 0.973048 13.3487C0.792407 13.5906 0.681989 13.8776 0.653946 14.1781C0.625904 14.4787 0.681324 14.7811 0.814108 15.0522C0.946891 15.3233 1.15189 15.5525 1.40654 15.7146L12.3331 22.6665L15.6822 27.9296C15.8403 28.1684 16.0859 28.3356 16.366 28.3953C16.6462 28.455 16.9386 28.4025 17.1804 28.2489C17.4222 28.0953 17.5941 27.8531 17.6592 27.5741C17.7243 27.2951 17.6773 27.0018 17.5284 26.7571L14.5184 22.0277L30.9115 5.63458L26.7662 15.999C26.7093 16.1329 26.6796 16.2769 26.679 16.4224C26.6784 16.5679 26.7069 16.7121 26.7627 16.8466C26.8186 16.981 26.9007 17.1029 27.0042 17.2051C27.1078 17.3074 27.2307 17.388 27.3658 17.4421C27.5009 17.4963 27.6455 17.5229 27.791 17.5205C27.9365 17.5181 28.0801 17.4867 28.2133 17.428C28.3465 17.3694 28.4667 17.2848 28.5668 17.1791C28.6669 17.0735 28.7449 16.9489 28.7962 16.8127L34.9212 1.5002ZM29.365 4.08801L12.9719 20.4811L3.48029 14.4415L29.365 4.08801Z" fill="white"/>
<path d="M35 27.3438C35 29.3743 34.1934 31.3217 32.7575 32.7575C31.3217 34.1934 29.3743 35 27.3438 35C25.3132 35 23.3658 34.1934 21.93 32.7575C20.4941 31.3217 19.6875 29.3743 19.6875 27.3438C19.6875 25.3132 20.4941 23.3658 21.93 21.93C23.3658 20.4941 25.3132 19.6875 27.3438 19.6875C29.3743 19.6875 31.3217 20.4941 32.7575 21.93C34.1934 23.3658 35 25.3132 35 27.3438ZM27.3438 22.9688C27.0537 22.9688 26.7755 23.084 26.5704 23.2891C26.3652 23.4942 26.25 23.7724 26.25 24.0625V26.25H24.0625C23.7724 26.25 23.4942 26.3652 23.2891 26.5704C23.084 26.7755 22.9688 27.0537 22.9688 27.3438C22.9688 27.6338 23.084 27.912 23.2891 28.1171C23.4942 28.3223 23.7724 28.4375 24.0625 28.4375H26.25V30.625C26.25 30.9151 26.3652 31.1933 26.5704 31.3984C26.7755 31.6035 27.0537 31.7188 27.3438 31.7188C27.6338 31.7188 27.912 31.6035 28.1171 31.3984C28.3223 31.1933 28.4375 30.9151 28.4375 30.625V28.4375H30.625C30.9151 28.4375 31.1933 28.3223 31.3984 28.1171C31.6035 27.912 31.7188 27.6338 31.7188 27.3438C31.7188 27.0537 31.6035 26.7755 31.3984 26.5704C31.1933 26.3652 30.9151 26.25 30.625 26.25H28.4375V24.0625C28.4375 23.7724 28.3223 23.4942 28.1171 23.2891C27.912 23.084 27.6338 22.9688 27.3438 22.9688Z" fill="white"/>
</g>
<defs>
<clipPath id="clip0_39_319">
<rect width="35" height="35" fill="white"/>
</clipPath>
</defs>
</svg>
