<svg width="30" height="30" viewBox="0 0 30 30" fill="none" xmlns="http://www.w3.org/2000/svg">
<path d="M26.6045 10.3447L19.166 9.26368L15.8408 2.52247C15.75 2.3379 15.6006 2.18849 15.416 2.09767C14.9531 1.86915 14.3906 2.05958 14.1592 2.52247L10.834 9.26368L3.39549 10.3447C3.19041 10.374 3.00291 10.4707 2.85935 10.6172C2.6858 10.7956 2.59017 11.0356 2.59347 11.2844C2.59676 11.5333 2.69872 11.7706 2.87693 11.9443L8.25877 17.1914L6.98728 24.6006C6.95747 24.773 6.97654 24.9502 7.04234 25.1123C7.10814 25.2743 7.21803 25.4147 7.35955 25.5175C7.50108 25.6203 7.66857 25.6814 7.84304 25.6938C8.01751 25.7063 8.19198 25.6696 8.34666 25.5879L15 22.0899L21.6533 25.5879C21.8349 25.6846 22.0459 25.7168 22.248 25.6817C22.7578 25.5938 23.1006 25.1104 23.0127 24.6006L21.7412 17.1914L27.123 11.9443C27.2695 11.8008 27.3662 11.6133 27.3955 11.4082C27.4746 10.8955 27.1172 10.4209 26.6045 10.3447Z" fill="#FAFF00"/>
</svg>
