<svg width="35" height="35" viewBox="0 0 35 35" fill="none" xmlns="http://www.w3.org/2000/svg">
<path d="M16.1496 3.83963C16.6163 2.6088 18.3823 2.6088 18.8505 3.83963L21.8692 12.2017C21.9745 12.4741 22.16 12.7082 22.4011 12.873C22.6422 13.0378 22.9276 13.1256 23.2196 13.1248H30.6382C32.009 13.1248 32.6069 14.8311 31.5292 15.6667L26.25 20.4165C26.0136 20.5983 25.8408 20.8503 25.7564 21.1364C25.672 21.4225 25.6805 21.728 25.7805 22.009L27.7084 30.18C28.178 31.4925 26.6584 32.6198 25.5092 31.8119L18.3386 27.2619C18.093 27.0893 17.8002 26.9967 17.5 26.9967C17.1999 26.9967 16.9071 27.0893 16.6615 27.2619L9.49088 31.8119C8.34318 32.6198 6.82213 31.4911 7.29172 30.18L9.21963 22.009C9.31964 21.728 9.32807 21.4225 9.24371 21.1364C9.15935 20.8503 8.98653 20.5983 8.75005 20.4165L3.47088 15.6667C2.39172 14.8311 2.99255 13.1248 4.36047 13.1248H11.779C12.0711 13.1258 12.3566 13.0381 12.5977 12.8732C12.8389 12.7084 13.0243 12.4742 13.1294 12.2017L16.1482 3.83963H16.1496Z" stroke="white" stroke-width="2" stroke-linecap="round" stroke-linejoin="round"/>
</svg>
