<svg width="35" height="35" viewBox="0 0 35 35" fill="none" xmlns="http://www.w3.org/2000/svg">
<path d="M10.5 5.25C9.10761 5.25 7.77226 5.80312 6.78769 6.78769C5.80312 7.77226 5.25 9.10761 5.25 10.5V24.5C5.25 25.8924 5.80312 27.2277 6.78769 28.2123C7.77226 29.1969 9.10761 29.75 10.5 29.75H16.8C16.5138 29.1907 16.2835 28.6045 16.1122 28H10.5C9.57174 28 8.6815 27.6313 8.02513 26.9749C7.36875 26.3185 7 25.4283 7 24.5V10.5C7 9.57174 7.36875 8.6815 8.02513 8.02513C8.6815 7.36875 9.57174 7 10.5 7H24.5C25.4283 7 26.3185 7.36875 26.9749 8.02513C27.6313 8.6815 28 9.57174 28 10.5V16.1122C28.6108 16.2855 29.1952 16.5148 29.75 16.8V10.5C29.75 9.10761 29.1969 7.77226 28.2123 6.78769C27.2277 5.80312 25.8924 5.25 24.5 5.25H10.5ZM16.3695 12.432C16.5338 12.2677 16.6261 12.0449 16.6261 11.8125C16.6261 11.5801 16.5338 11.3573 16.3695 11.193C16.2052 11.0287 15.9824 10.9364 15.75 10.9364C15.5176 10.9364 15.2948 11.0287 15.1305 11.193L12.6595 13.664L11.9647 13.0305C11.7921 12.883 11.5689 12.8083 11.3423 12.8223C11.1156 12.8363 10.9033 12.9379 10.7501 13.1056C10.597 13.2733 10.515 13.4939 10.5216 13.7209C10.5282 13.9479 10.6227 14.1634 10.7853 14.322L12.0978 15.5208C12.2641 15.6722 12.4823 15.7537 12.7071 15.7485C12.9319 15.7433 13.1461 15.6517 13.3053 15.4927L16.3677 12.4303L16.3695 12.432ZM16.3695 19.943C16.451 20.0243 16.5156 20.1208 16.5597 20.2271C16.6039 20.3334 16.6266 20.4474 16.6266 20.5625C16.6266 20.6776 16.6039 20.7916 16.5597 20.8979C16.5156 21.0042 16.451 21.1007 16.3695 21.182L13.307 24.2445C13.1476 24.4037 12.9329 24.4953 12.7076 24.5002C12.4824 24.5051 12.2639 24.4229 12.0978 24.2708L10.7853 23.072C10.6227 22.9134 10.5282 22.6979 10.5216 22.4709C10.515 22.2439 10.597 22.0233 10.7501 21.8556C10.9033 21.6879 11.1156 21.5863 11.3423 21.5723C11.5689 21.5583 11.7921 21.633 11.9647 21.7805L12.6595 22.4158L15.1305 19.943C15.2118 19.8615 15.3083 19.7969 15.4146 19.7528C15.5209 19.7086 15.6349 19.6859 15.75 19.6859C15.8651 19.6859 15.9791 19.7086 16.0854 19.7528C16.1917 19.7969 16.2882 19.8615 16.3695 19.943ZM18.375 13.125C18.375 12.8929 18.4672 12.6704 18.6313 12.5063C18.7954 12.3422 19.0179 12.25 19.25 12.25H23.625C23.8571 12.25 24.0796 12.3422 24.2437 12.5063C24.4078 12.6704 24.5 12.8929 24.5 13.125C24.5 13.3571 24.4078 13.5796 24.2437 13.7437C24.0796 13.9078 23.8571 14 23.625 14H19.25C19.0179 14 18.7954 13.9078 18.6313 13.7437C18.4672 13.5796 18.375 13.3571 18.375 13.125ZM33.25 25.375C33.25 27.4636 32.4203 29.4666 30.9435 30.9435C29.4666 32.4203 27.4636 33.25 25.375 33.25C23.2864 33.25 21.2834 32.4203 19.8065 30.9435C18.3297 29.4666 17.5 27.4636 17.5 25.375C17.5 23.2864 18.3297 21.2834 19.8065 19.8065C21.2834 18.3297 23.2864 17.5 25.375 17.5C27.4636 17.5 29.4666 18.3297 30.9435 19.8065C32.4203 21.2834 33.25 23.2864 33.25 25.375ZM26.25 21.875C26.25 21.6429 26.1578 21.4204 25.9937 21.2563C25.8296 21.0922 25.6071 21 25.375 21C25.1429 21 24.9204 21.0922 24.7563 21.2563C24.5922 21.4204 24.5 21.6429 24.5 21.875V24.5H21.875C21.6429 24.5 21.4204 24.5922 21.2563 24.7563C21.0922 24.9204 21 25.1429 21 25.375C21 25.6071 21.0922 25.8296 21.2563 25.9937C21.4204 26.1578 21.6429 26.25 21.875 26.25H24.5V28.875C24.5 29.1071 24.5922 29.3296 24.7563 29.4937C24.9204 29.6578 25.1429 29.75 25.375 29.75C25.6071 29.75 25.8296 29.6578 25.9937 29.4937C26.1578 29.3296 26.25 29.1071 26.25 28.875V26.25H28.875C29.1071 26.25 29.3296 26.1578 29.4937 25.9937C29.6578 25.8296 29.75 25.6071 29.75 25.375C29.75 25.1429 29.6578 24.9204 29.4937 24.7563C29.3296 24.5922 29.1071 24.5 28.875 24.5H26.25V21.875Z" fill="white"/>
</svg>
