<svg width="40" height="40" viewBox="0 0 40 40" fill="none" xmlns="http://www.w3.org/2000/svg">
<path d="M20.8334 17.0833C20.8334 16.7517 20.965 16.4338 21.1995 16.1994C21.4339 15.9649 21.7518 15.8333 22.0834 15.8333H27.9167C28.2482 15.8333 28.5662 15.9649 28.8006 16.1994C29.035 16.4338 29.1667 16.7517 29.1667 17.0833C29.1667 17.4148 29.035 17.7327 28.8006 17.9671C28.5662 18.2016 28.2482 18.3333 27.9167 18.3333H22.0834C21.7518 18.3333 21.4339 18.2016 21.1995 17.9671C20.965 17.7327 20.8334 17.4148 20.8334 17.0833ZM22.0834 24.9999C21.7518 24.9999 21.4339 25.1316 21.1995 25.366C20.965 25.6005 20.8334 25.9184 20.8334 26.2499C20.8334 26.5814 20.965 26.8994 21.1995 27.1338C21.4339 27.3682 21.7518 27.4999 22.0834 27.4999H27.9167C28.2482 27.4999 28.5662 27.3682 28.8006 27.1338C29.035 26.8994 29.1667 26.5814 29.1667 26.2499C29.1667 25.9184 29.035 25.6005 28.8006 25.366C28.5662 25.1316 28.2482 24.9999 27.9167 24.9999H22.0834ZM17.9667 16.2999C18.0895 16.1855 18.188 16.0475 18.2563 15.8941C18.3246 15.7408 18.3614 15.5753 18.3643 15.4075C18.3673 15.2396 18.3364 15.0729 18.2736 14.9173C18.2107 14.7616 18.1171 14.6202 17.9984 14.5015C17.8797 14.3828 17.7383 14.2892 17.5827 14.2264C17.427 14.1635 17.2603 14.1326 17.0925 14.1356C16.9246 14.1386 16.7591 14.1753 16.6058 14.2436C16.4525 14.3119 16.3145 14.4104 16.2 14.5333L13.75 16.9833L12.9667 16.1999C12.7297 15.9791 12.4163 15.8589 12.0925 15.8646C11.7686 15.8703 11.4597 16.0015 11.2307 16.2305C11.0016 16.4596 10.8704 16.7685 10.8647 17.0924C10.859 17.4162 10.9792 17.7296 11.2 17.9666L12.8667 19.6333C13.1011 19.8673 13.4188 19.9988 13.75 19.9988C14.0813 19.9988 14.399 19.8673 14.6334 19.6333L17.9667 16.2999ZM17.9667 23.6999C18.2008 23.9343 18.3323 24.252 18.3323 24.5833C18.3323 24.9145 18.2008 25.2322 17.9667 25.4666L14.6334 28.7999C14.399 29.034 14.0813 29.1655 13.75 29.1655C13.4188 29.1655 13.1011 29.034 12.8667 28.7999L11.2 27.1333C11.0772 27.0188 10.9787 26.8808 10.9104 26.7275C10.8421 26.5742 10.8053 26.4086 10.8024 26.2408C10.7994 26.073 10.8303 25.9062 10.8931 25.7506C10.956 25.5949 11.0496 25.4536 11.1683 25.3349C11.287 25.2162 11.4284 25.1226 11.584 25.0597C11.7397 24.9968 11.9064 24.966 12.0742 24.9689C12.2421 24.9719 12.4076 25.0086 12.5609 25.077C12.7142 25.1453 12.8523 25.2438 12.9667 25.3666L13.75 26.1499L16.2 23.6999C16.4344 23.4658 16.7521 23.3344 17.0834 23.3344C17.4146 23.3344 17.7323 23.4658 17.9667 23.6999ZM26.6567 6.80659C26.5868 5.86246 26.1625 4.97969 25.4688 4.33545C24.7751 3.69122 23.8634 3.3332 22.9167 3.33325H17.0834C16.161 3.33328 15.2709 3.67326 14.5834 4.2882C13.8959 4.90315 13.4592 5.7499 13.3567 6.66659H10.4167C9.42213 6.66659 8.4683 7.06167 7.76504 7.76494C7.06178 8.4682 6.66669 9.42202 6.66669 10.4166V32.9166C6.66669 33.9111 7.06178 34.865 7.76504 35.5682C8.4683 36.2715 9.42213 36.6666 10.4167 36.6666H29.5834C30.0758 36.6666 30.5634 36.5696 31.0184 36.3811C31.4734 36.1927 31.8868 35.9165 32.235 35.5682C32.5832 35.22 32.8594 34.8066 33.0479 34.3516C33.2364 33.8967 33.3334 33.409 33.3334 32.9166V10.4166C33.3334 9.92413 33.2364 9.43649 33.0479 8.98152C32.8594 8.52655 32.5832 8.11315 32.235 7.76494C31.8868 7.41672 31.4734 7.14049 31.0184 6.95204C30.5634 6.76358 30.0758 6.66659 29.5834 6.66659H26.6434L26.6567 6.80659ZM26.6567 6.82659L26.6667 7.08325C26.6667 6.99659 26.6634 6.91159 26.6584 6.82659H26.6567ZM17.0834 10.8333H22.9167C24.2167 10.8333 25.3617 10.1716 26.035 9.16658H29.5834C29.9149 9.16658 30.2328 9.29828 30.4672 9.5327C30.7017 9.76712 30.8334 10.0851 30.8334 10.4166V32.9166C30.8334 33.2481 30.7017 33.566 30.4672 33.8005C30.2328 34.0349 29.9149 34.1666 29.5834 34.1666H10.4167C10.0852 34.1666 9.76722 34.0349 9.5328 33.8005C9.29838 33.566 9.16669 33.2481 9.16669 32.9166V10.4166C9.16669 10.0851 9.29838 9.76712 9.5328 9.5327C9.76722 9.29828 10.0852 9.16658 10.4167 9.16658H13.965C14.6384 10.1716 15.7834 10.8333 17.0834 10.8333ZM17.0834 5.83325H22.9167C23.2482 5.83325 23.5661 5.96495 23.8006 6.19937C24.035 6.43379 24.1667 6.75173 24.1667 7.08325C24.1667 7.41477 24.035 7.73272 23.8006 7.96714C23.5661 8.20156 23.2482 8.33325 22.9167 8.33325H17.0834C16.7518 8.33325 16.4339 8.20156 16.1995 7.96714C15.965 7.73272 15.8334 7.41477 15.8334 7.08325C15.8334 6.75173 15.965 6.43379 16.1995 6.19937C16.4339 5.96495 16.7518 5.83325 17.0834 5.83325Z" fill="#fff"/>
</svg>
