<svg width="31" height="30" viewBox="0 0 31 30" fill="none" xmlns="http://www.w3.org/2000/svg">
<path d="M11.1318 10.3125C11.3805 10.3125 11.6189 10.4113 11.7947 10.5871C11.9706 10.7629 12.0693 11.0014 12.0693 11.25V22.5C12.0693 22.7486 11.9706 22.9871 11.7947 23.1629C11.6189 23.3387 11.3805 23.4375 11.1318 23.4375C10.8832 23.4375 10.6447 23.3387 10.4689 23.1629C10.2931 22.9871 10.1943 22.7486 10.1943 22.5V11.25C10.1943 11.0014 10.2931 10.7629 10.4689 10.5871C10.6447 10.4113 10.8832 10.3125 11.1318 10.3125ZM15.8193 10.3125C16.068 10.3125 16.3064 10.4113 16.4822 10.5871C16.6581 10.7629 16.7568 11.0014 16.7568 11.25V22.5C16.7568 22.7486 16.6581 22.9871 16.4822 23.1629C16.3064 23.3387 16.068 23.4375 15.8193 23.4375C15.5707 23.4375 15.3322 23.3387 15.1564 23.1629C14.9806 22.9871 14.8818 22.7486 14.8818 22.5V11.25C14.8818 11.0014 14.9806 10.7629 15.1564 10.5871C15.3322 10.4113 15.5707 10.3125 15.8193 10.3125ZM21.4443 11.25C21.4443 11.0014 21.3456 10.7629 21.1697 10.5871C20.9939 10.4113 20.7555 10.3125 20.5068 10.3125C20.2582 10.3125 20.0197 10.4113 19.8439 10.5871C19.6681 10.7629 19.5693 11.0014 19.5693 11.25V22.5C19.5693 22.7486 19.6681 22.9871 19.8439 23.1629C20.0197 23.3387 20.2582 23.4375 20.5068 23.4375C20.7555 23.4375 20.9939 23.3387 21.1697 23.1629C21.3456 22.9871 21.4443 22.7486 21.4443 22.5V11.25Z" fill="#58585F"/>
<path fill-rule="evenodd" clip-rule="evenodd" d="M28.0068 5.625C28.0068 6.12228 27.8093 6.59919 27.4577 6.95083C27.106 7.30246 26.6291 7.5 26.1318 7.5H25.1943V24.375C25.1943 25.3696 24.7992 26.3234 24.096 27.0266C23.3927 27.7299 22.4389 28.125 21.4443 28.125H10.1943C9.19977 28.125 8.24595 27.7299 7.54269 27.0266C6.83942 26.3234 6.44434 25.3696 6.44434 24.375V7.5H5.50684C5.00955 7.5 4.53264 7.30246 4.18101 6.95083C3.82938 6.59919 3.63184 6.12228 3.63184 5.625V3.75C3.63184 3.25272 3.82938 2.77581 4.18101 2.42417C4.53264 2.07254 5.00955 1.875 5.50684 1.875H12.0693C12.0693 1.37772 12.2669 0.900806 12.6185 0.549175C12.9701 0.197544 13.4471 0 13.9443 0L17.6943 0C18.1916 0 18.6685 0.197544 19.0202 0.549175C19.3718 0.900806 19.5693 1.37772 19.5693 1.875H26.1318C26.6291 1.875 27.106 2.07254 27.4577 2.42417C27.8093 2.77581 28.0068 3.25272 28.0068 3.75V5.625ZM8.54059 7.5L8.31934 7.61063V24.375C8.31934 24.8723 8.51688 25.3492 8.86851 25.7008C9.22014 26.0525 9.69705 26.25 10.1943 26.25H21.4443C21.9416 26.25 22.4185 26.0525 22.7702 25.7008C23.1218 25.3492 23.3193 24.8723 23.3193 24.375V7.61063L23.0981 7.5H8.54059ZM5.50684 5.625V3.75H26.1318V5.625H5.50684Z" fill="#58585F"/>
</svg>
