<svg width="32" height="35" viewBox="0 0 32 35" fill="none" xmlns="http://www.w3.org/2000/svg">
<path d="M21.1968 22.4033C21.9531 21.9626 22.8187 21.7118 23.7406 21.7118H23.7437C23.8375 21.7118 23.8812 21.5898 23.8125 21.522C22.8538 20.5887 21.7586 19.8349 20.5718 19.2915C20.5593 19.2847 20.5468 19.2813 20.5343 19.2745C22.475 17.7457 23.7375 15.261 23.7375 12.4576C23.7375 7.81349 20.275 4.05078 16.0031 4.05078C11.7312 4.05078 8.27183 7.81349 8.27183 12.4576C8.27183 15.261 9.53433 17.7457 11.4781 19.2745C11.4656 19.2813 11.4531 19.2847 11.4406 19.2915C10.0437 19.9321 8.79058 20.8508 7.71246 22.0237C6.64056 23.1843 5.78719 24.5602 5.19996 26.0745C4.62218 27.5574 4.31037 29.1463 4.28121 30.7559C4.28037 30.792 4.28622 30.828 4.29841 30.8617C4.3106 30.8954 4.32888 30.9261 4.35218 30.952C4.37548 30.9779 4.40332 30.9985 4.43407 31.0126C4.46482 31.0266 4.49784 31.0338 4.53121 31.0338H6.40308C6.53746 31.0338 6.64996 30.9152 6.65308 30.7694C6.71558 28.1525 7.68121 25.7016 9.39058 23.844C11.1562 21.922 13.5062 20.8643 16.0062 20.8643C17.7781 20.8643 19.4781 21.3965 20.9437 22.3932C20.9814 22.4188 21.0246 22.4333 21.069 22.4351C21.1134 22.4368 21.1575 22.4259 21.1968 22.4033ZM16.0062 18.2881C14.575 18.2881 13.2281 17.6813 12.2125 16.5796C11.7128 16.0389 11.3166 15.3964 11.0468 14.6889C10.7771 13.9815 10.639 13.2231 10.6406 12.4576C10.6406 10.9016 11.2 9.43722 12.2125 8.33553C13.225 7.23383 14.5718 6.62705 16.0062 6.62705C17.4406 6.62705 18.7843 7.23383 19.8 8.33553C20.2997 8.87617 20.6958 9.51873 20.9656 10.2262C21.2354 10.9336 21.3734 11.692 21.3718 12.4576C21.3718 14.0135 20.8125 15.4779 19.8 16.5796C18.7843 17.6813 17.4375 18.2881 16.0062 18.2881ZM27.5 26.3559H20C19.8625 26.3559 19.75 26.4779 19.75 26.6271V28.5254C19.75 28.6745 19.8625 28.7965 20 28.7965H27.5C27.6375 28.7965 27.75 28.6745 27.75 28.5254V26.6271C27.75 26.4779 27.6375 26.3559 27.5 26.3559Z" fill="#EA5656"/>
</svg>
