<svg width="40" height="40" viewBox="0 0 40 40" fill="none" xmlns="http://www.w3.org/2000/svg">
<path d="M26.6666 35V31.6667C26.6666 29.8986 25.9643 28.2029 24.714 26.9526C23.4638 25.7024 21.7681 25 20 25H9.99998C8.23187 25 6.53618 25.7024 5.28593 26.9526C4.03569 28.2029 3.33331 29.8986 3.33331 31.6667V35" stroke="#0063C9" stroke-width="2" stroke-linecap="round" stroke-linejoin="round"/>
<path d="M15 18.3333C18.6819 18.3333 21.6666 15.3486 21.6666 11.6667C21.6666 7.98477 18.6819 5 15 5C11.3181 5 8.33331 7.98477 8.33331 11.6667C8.33331 15.3486 11.3181 18.3333 15 18.3333Z" stroke="#0063C9" stroke-width="2" stroke-linecap="round" stroke-linejoin="round"/>
<path d="M26.6666 5.2168C28.1007 5.58397 29.3717 6.41797 30.2794 7.58731C31.187 8.75666 31.6797 10.1948 31.6797 11.6751C31.6797 13.1554 31.187 14.5936 30.2794 15.7629C29.3717 16.9323 28.1007 17.7663 26.6666 18.1335M36.6666 35.0001V31.6668C36.6655 30.1897 36.1739 28.7547 35.2689 27.5873C34.3639 26.4199 33.0968 25.5861 31.6666 25.2168L36.6666 35.0001Z" stroke="#0063C9" stroke-width="2" stroke-linecap="round" stroke-linejoin="round"/>
</svg>
