<svg width="33" height="35" viewBox="0 0 33 35" fill="none" xmlns="http://www.w3.org/2000/svg">
<path d="M21.8019 21.9629C22.5582 21.5222 23.4238 21.2714 24.3457 21.2714H24.3488C24.4426 21.2714 24.4863 21.1493 24.4176 21.0815C23.4589 20.1482 22.3637 19.3945 21.1769 18.851C21.1644 18.8442 21.1519 18.8409 21.1394 18.8341C23.0801 17.3053 24.3426 14.8205 24.3426 12.0171C24.3426 7.37306 20.8801 3.61035 16.6082 3.61035C12.3363 3.61035 8.87693 7.37306 8.87693 12.0171C8.87693 14.8205 10.1394 17.3053 12.0832 18.8341C12.0707 18.8409 12.0582 18.8442 12.0457 18.851C10.6488 19.4917 9.39568 20.4104 8.31756 21.5832C7.24566 22.7439 6.39229 24.1197 5.80506 25.6341C5.22729 27.117 4.91547 28.7058 4.88631 30.3154C4.88547 30.3516 4.89132 30.3876 4.90351 30.4213C4.9157 30.455 4.93399 30.4857 4.95728 30.5116C4.98058 30.5375 5.00843 30.5581 5.03917 30.5721C5.06992 30.5862 5.10295 30.5934 5.13631 30.5934H7.00818C7.14256 30.5934 7.25506 30.4748 7.25818 30.329C7.32068 27.712 8.28631 25.2612 9.99568 23.4036C11.7613 21.4815 14.1113 20.4239 16.6113 20.4239C18.3832 20.4239 20.0832 20.9561 21.5488 21.9527C21.5865 21.9784 21.6297 21.9928 21.6741 21.9946C21.7185 21.9964 21.7626 21.9855 21.8019 21.9629ZM16.6113 17.8476C15.1801 17.8476 13.8332 17.2409 12.8176 16.1392C12.3179 15.5985 11.9217 14.956 11.6519 14.2485C11.3822 13.5411 11.2441 12.7827 11.2457 12.0171C11.2457 10.4612 11.8051 8.99679 12.8176 7.8951C13.8301 6.7934 15.1769 6.18662 16.6113 6.18662C18.0457 6.18662 19.3894 6.7934 20.4051 7.8951C20.9048 8.43574 21.3009 9.0783 21.5707 9.78575C21.8405 10.4932 21.9785 11.2516 21.9769 12.0171C21.9769 13.5731 21.4176 15.0375 20.4051 16.1392C19.3894 17.2409 18.0426 17.8476 16.6113 17.8476ZM28.1051 25.9154H25.4801V23.068C25.4801 22.9188 25.3676 22.7968 25.2301 22.7968H23.4801C23.3426 22.7968 23.2301 22.9188 23.2301 23.068V25.9154H20.6051C20.4676 25.9154 20.3551 26.0375 20.3551 26.1866V28.0849C20.3551 28.2341 20.4676 28.3561 20.6051 28.3561H23.2301V31.2036C23.2301 31.3527 23.3426 31.4748 23.4801 31.4748H25.2301C25.3676 31.4748 25.4801 31.3527 25.4801 31.2036V28.3561H28.1051C28.2426 28.3561 28.3551 28.2341 28.3551 28.0849V26.1866C28.3551 26.0375 28.2426 25.9154 28.1051 25.9154Z" fill="black"/>
</svg>
